Coordinates
version=1
nRows=7
nColumns=33
inDegrees=yes

Units are S.I. units (second, meters, Newtons, ...)
Angles are in degrees.

endheader
time	ground_thorax_rot_x	ground_thorax_rot_y	ground_thorax_rot_z	ground_thorax_tx	ground_thorax_ty	ground_thorax_tz	clav_prot_r	clav_elev_r	scapula_abduction_r	scapula_elevation_r	scapula_upward_rot_r	scapula_winging_r	shoulder_elv_r	plane_of_elev_r	axial_rot_r	elbow_flexion_r	pro_sup_r	wrist_flex_r	wrist_dev_r	clav_prot_l	clav_elev_l	scapula_abduction_l	scapula_elevation_l	scapula_upward_rot_l	scapula_winging_l	shoulder_elv_l	plane_of_elev_l	axial_rot_l	elbow_flexion_l	pro_sup_l	wrist_flex_l	wrist_dev_l
      1.63000000	     22.44068658	     36.23948830	      5.48417681	      0.01840759	      1.00943020	     -0.04522734	    -20.21392386	     32.45415557	    -21.02672883	     23.29070050	     45.00000000	    -10.97105822	      1.28877352	    -90.00000000	     24.88849241	     71.19341260	      5.97631635	     40.97546718	    -18.97008723	     17.43073393	     -4.90168781	    -45.00000000	      0.43682264	     10.30794317	     21.23269300	     15.77072630	    -56.32582759	    -27.90259710	     63.94568055	     33.32079731	     -0.86323627	    -24.99999983
      1.64000000	     22.41215352	     36.24485724	      5.54540930	      0.01832675	      1.00922519	     -0.04531010	    -20.20898911	     32.41692490	    -20.96132304	     23.25892366	     45.00000000	    -10.98250055	      1.27089180	    -90.00000000	     24.90637814	     71.27789001	      5.97958232	     40.99875824	    -18.98030369	     17.43193787	     -4.95786603	    -45.00000000	      0.48123663	     10.31039353	     21.20920861	     15.77081469	    -56.27665732	    -27.92510548	     63.92050982	     33.31543493	     -0.87858146	    -24.99999983
      1.65000000	     22.38719232	     36.10915224	      5.58058813	      0.01839952	      1.00912055	     -0.04500910	    -20.17838493	     32.33368882	    -20.77328674	     23.18998518	     45.00000000	    -11.00036100	      1.20171331	    -90.00000000	     24.97557016	     71.50507882	      5.97350488	     41.07440441	    -19.03860783	     17.44805482	     -5.10572885	    -45.00000000	      0.58578356	     10.26756264	     21.15958048	     15.90164682	    -56.26507269	    -27.98264407	     63.71567881	     33.30110028	     -0.92192444	    -24.99999983
      1.66000000	     22.53216260	     36.11016435	      5.38044470	      0.01849549	      1.00946976	     -0.04468778	    -20.26704650	     32.11616015	    -20.64503664	     22.98771283	     45.00000000	    -11.10997010	      1.09109824	    -90.00000000	     25.08642230	     71.61288395	      5.48408627	     41.42881455	    -20.06325540	     17.60616299	     -5.84180191	    -45.00000000	      1.03126203	      9.77797344	     20.89976401	     16.72489697	    -56.23565491	    -28.46863828	     63.89348178	     32.71413629	     -1.86344083	    -24.99999983
      1.67000000	     22.50089521	     36.07416918	      5.45326915	      0.01850459	      1.00931220	     -0.04467704	    -20.23856820	     32.07750366	    -20.52748346	     22.95773250	     45.00000000	    -11.11334892	      1.02852513	    -90.00000000	     25.14900525	     71.80866056	      5.49499779	     41.49663197	    -20.05573570	     17.60585074	     -5.90645806	    -45.00000000	      1.08492517	      9.78790821	     20.87346683	     16.76188008	    -56.17512152	    -28.54219527	     63.82706720	     32.70054713	     -1.85756844	    -24.99999983
      1.68000000	     22.56051479	     36.13987005	      5.31802442	      0.01852919	      1.00930051	     -0.04445890	    -20.32621132	     31.92343131	    -20.49291287	     22.81159522	     45.00000000	    -11.19940223	      0.95424856	    -90.00000000	     25.22353527	     72.07461102	      4.96727254	     41.81383903	    -20.64885837	     17.69195086	     -6.28543742	    -45.00000000	      1.30966214	      9.51936889	     20.73946445	     17.57379272	    -56.04230781	    -29.36233858	     63.97303428	     32.04144031	     -2.12617011	    -24.99999983
      1.69000000	     22.51051665	     36.19027360	      5.40936684	      0.01853366	      1.00930321	     -0.04468548	    -20.31564759	     31.88280578	    -20.41389776	     22.77737899	     45.00000000	    -11.21012651	      0.94985277	    -90.00000000	     25.22793286	     72.19624833	      4.97205405	     41.84592391	    -20.64466950	     17.68646280	     -6.32922654	    -45.00000000	      1.35121759	      9.54566496	     20.71719550	     17.56120934	    -55.97015409	    -29.38433657	     63.98844367	     32.03214838	     -2.12548181	    -24.99999983
